<mxfile host="app.diagrams.net" agent="Mozilla/5.0 (Macintosh; Intel Mac OS X 10_15_7) AppleWebKit/537.36 (KHTML, like Gecko) Chrome/139.0.0.0 Safari/537.36" version="28.1.0">
  <diagram name="第 1 页" id="UdDRWgKDQgx7KJo6n-if">
    <mxGraphModel dx="1803" dy="629" grid="1" gridSize="10" guides="1" tooltips="1" connect="1" arrows="1" fold="1" page="1" pageScale="1" pageWidth="827" pageHeight="1169" math="0" shadow="0">
      <root>
        <mxCell id="0" />
        <mxCell id="1" parent="0" />
        <mxCell id="CeWzTd817CsiHv9rKl07-11" value="" style="rounded=0;whiteSpace=wrap;html=1;" vertex="1" parent="1">
          <mxGeometry x="-30" y="180" width="660" height="260" as="geometry" />
        </mxCell>
        <mxCell id="CeWzTd817CsiHv9rKl07-1" value="&lt;p style=&quot;margin: 0pt 0pt 0.0001pt; text-align: justify; font-family: 等线; font-size: 10.5pt;&quot; class=&quot;MsoNormal&quot;&gt;&lt;span style=&quot;font-family: sans-serif; color: rgb(51, 51, 51); font-size: 10.5pt;&quot;&gt;&lt;font face=&quot;sans-serif&quot;&gt;课题&lt;/font&gt;&lt;font face=&quot;sans-serif&quot;&gt;1为&lt;/font&gt;&lt;/span&gt;&lt;span style=&quot;font-family: sans-serif; color: rgb(51, 51, 51); letter-spacing: 0pt; font-size: 10.5pt;&quot;&gt;打架行为监测与联动干预&lt;/span&gt;&lt;/p&gt;" style="rounded=1;whiteSpace=wrap;html=1;" vertex="1" parent="1">
          <mxGeometry x="110" y="250" width="130" height="60" as="geometry" />
        </mxCell>
        <mxCell id="CeWzTd817CsiHv9rKl07-5" value="&lt;p style=&quot;margin: 0pt 0pt 0.0001pt; text-align: justify; font-family: 等线; font-size: 10.5pt;&quot; class=&quot;MsoNormal&quot;&gt;&lt;span style=&quot;font-family: sans-serif; color: rgb(51, 51, 51); letter-spacing: 0pt; font-size: 10.5pt;&quot;&gt;&lt;font face=&quot;sans-serif&quot;&gt;课题&lt;/font&gt;&lt;font face=&quot;sans-serif&quot;&gt;2为&lt;/font&gt;&lt;/span&gt;&lt;span style=&quot;font-family: sans-serif; color: rgb(51, 51, 51); letter-spacing: 0pt; font-size: 10.5pt;&quot;&gt;基于饲喂模式的营养动态分群决策&lt;/span&gt;&lt;/p&gt;" style="rounded=1;whiteSpace=wrap;html=1;" vertex="1" parent="1">
          <mxGeometry x="330" y="250" width="140" height="60" as="geometry" />
        </mxCell>
        <mxCell id="CeWzTd817CsiHv9rKl07-6" value="&lt;p style=&quot;margin: 0pt 0pt 0.0001pt; text-align: justify; font-family: 等线; font-size: 10.5pt;&quot; class=&quot;MsoNormal&quot;&gt;&lt;span style=&quot;font-family: sans-serif; color: rgb(51, 51, 51); letter-spacing: 0pt; font-size: 10.5pt;&quot;&gt;&lt;font face=&quot;sans-serif&quot;&gt;课题&lt;/font&gt;&lt;font face=&quot;sans-serif&quot;&gt;3为&lt;/font&gt;&lt;/span&gt;&lt;span style=&quot;font-family: sans-serif; color: rgb(51, 51, 51); letter-spacing: 0pt; font-size: 10.5pt;&quot;&gt;动态分群模式与打架监测干预的系统集成与示范&lt;/span&gt;&lt;/p&gt;" style="rounded=1;whiteSpace=wrap;html=1;" vertex="1" parent="1">
          <mxGeometry x="190" y="370" width="190" height="60" as="geometry" />
        </mxCell>
        <mxCell id="CeWzTd817CsiHv9rKl07-7" value="" style="shape=flexArrow;endArrow=classic;html=1;rounded=0;" edge="1" parent="1">
          <mxGeometry width="50" height="50" relative="1" as="geometry">
            <mxPoint x="160" y="320" as="sourcePoint" />
            <mxPoint x="200" y="360" as="targetPoint" />
          </mxGeometry>
        </mxCell>
        <mxCell id="CeWzTd817CsiHv9rKl07-9" value="技术集成" style="rounded=0;whiteSpace=wrap;html=1;strokeColor=none;" vertex="1" parent="1">
          <mxGeometry x="240" y="330" width="90" height="30" as="geometry" />
        </mxCell>
        <mxCell id="CeWzTd817CsiHv9rKl07-10" value="" style="shape=flexArrow;endArrow=classic;html=1;rounded=0;" edge="1" parent="1">
          <mxGeometry width="50" height="50" relative="1" as="geometry">
            <mxPoint x="410" y="320" as="sourcePoint" />
            <mxPoint x="370" y="360" as="targetPoint" />
          </mxGeometry>
        </mxCell>
        <mxCell id="CeWzTd817CsiHv9rKl07-12" value="分解逻辑关系" style="rounded=1;whiteSpace=wrap;html=1;" vertex="1" parent="1">
          <mxGeometry x="-20" y="190" width="640" height="40" as="geometry" />
        </mxCell>
      </root>
    </mxGraphModel>
  </diagram>
</mxfile>
